<svg xmlns="http://www.w3.org/2000/svg" xmlns:xlink="http://www.w3.org/1999/xlink" width="1080" zoomAndPan="magnify" viewBox="0 0 810 809.999993" height="1080" preserveAspectRatio="xMidYMid meet" version="1.0"><defs><g/><clipPath id="b754a88064"><path d="M 0 210.546875 L 270 210.546875 L 270 392 L 0 392 Z M 0 210.546875 " clip-rule="nonzero"/></clipPath></defs><g clip-path="url(#b754a88064)"><path fill="#3c52d9" d="M 265.941406 322.074219 C 270.617188 326.835938 270.617188 334.546875 265.941406 339.300781 L 216.972656 389.121094 C 216.605469 389.5 216.203125 389.835938 215.769531 390.132812 C 215.335938 390.429688 214.875 390.679688 214.390625 390.882812 C 213.90625 391.089844 213.40625 391.242188 212.890625 391.347656 C 212.375 391.453125 211.851562 391.503906 211.328125 391.503906 C 210.800781 391.503906 210.28125 391.453125 209.765625 391.347656 C 209.25 391.242188 208.75 391.089844 208.261719 390.882812 C 207.777344 390.679688 207.320312 390.429688 206.882812 390.132812 C 206.449219 389.835938 206.046875 389.5 205.679688 389.121094 L 148.554688 331 C 146.3125 328.714844 145.046875 325.613281 145.046875 322.382812 L 145.046875 218.6875 C 145.046875 211.453125 153.644531 207.824219 158.675781 212.945312 L 265.9375 322.078125 Z M 49.777344 386.058594 C 50.328125 386.625 50.929688 387.128906 51.582031 387.574219 C 52.234375 388.019531 52.921875 388.394531 53.648438 388.703125 C 54.375 389.007812 55.128906 389.238281 55.902344 389.398438 C 56.675781 389.554688 57.457031 389.632812 58.246094 389.632812 C 59.035156 389.632812 59.816406 389.554688 60.589844 389.398438 C 61.363281 389.238281 62.113281 389.007812 62.839844 388.703125 C 63.566406 388.394531 64.257812 388.019531 64.90625 387.574219 C 65.558594 387.128906 66.160156 386.625 66.710938 386.058594 L 120.984375 330.839844 C 123.226562 328.554688 124.488281 325.453125 124.488281 322.222656 L 124.488281 218.785156 C 124.488281 211.546875 115.886719 207.921875 110.859375 213.039062 L 3.769531 322.011719 C -0.90625 326.773438 -0.90625 334.484375 3.769531 339.242188 Z M 49.777344 386.058594 " fill-opacity="1" fill-rule="nonzero"/></g><path fill="#2ef2ff" d="M 80.433594 403.699219 L 123.835938 360.289062 C 124.527344 359.597656 125.28125 358.980469 126.09375 358.433594 C 126.90625 357.890625 127.765625 357.433594 128.667969 357.058594 C 129.574219 356.683594 130.503906 356.402344 131.464844 356.210938 C 132.421875 356.019531 133.390625 355.925781 134.371094 355.925781 C 135.347656 355.925781 136.316406 356.019531 137.277344 356.210938 C 138.234375 356.402344 139.167969 356.683594 140.070312 357.058594 C 140.972656 357.433594 141.832031 357.890625 142.644531 358.433594 C 143.460938 358.980469 144.210938 359.597656 144.902344 360.289062 L 188.820312 404.214844 C 189.511719 404.90625 190.128906 405.65625 190.671875 406.472656 C 191.214844 407.285156 191.675781 408.144531 192.046875 409.046875 C 192.421875 409.953125 192.707031 410.882812 192.894531 411.84375 C 193.085938 412.800781 193.183594 413.769531 193.183594 414.75 C 193.183594 415.726562 193.085938 416.695312 192.894531 417.65625 C 192.707031 418.617188 192.421875 419.546875 192.046875 420.453125 C 191.675781 421.355469 191.214844 422.214844 190.671875 423.027344 C 190.128906 423.839844 189.511719 424.59375 188.820312 425.285156 L 145.417969 468.699219 C 144.726562 469.390625 143.972656 470.007812 143.160156 470.550781 C 142.347656 471.09375 141.488281 471.554688 140.582031 471.925781 C 139.679688 472.300781 138.75 472.585938 137.789062 472.773438 C 136.828125 472.964844 135.859375 473.0625 134.882812 473.0625 C 133.90625 473.0625 132.9375 472.964844 131.976562 472.773438 C 131.019531 472.585938 130.085938 472.300781 129.183594 471.925781 C 128.277344 471.554688 127.421875 471.09375 126.605469 470.550781 C 125.792969 470.007812 125.042969 469.390625 124.347656 468.699219 L 80.433594 424.773438 C 79.742188 424.082031 79.125 423.328125 78.582031 422.515625 C 78.039062 421.699219 77.578125 420.84375 77.203125 419.9375 C 76.832031 419.035156 76.546875 418.101562 76.355469 417.144531 C 76.167969 416.183594 76.070312 415.214844 76.070312 414.234375 C 76.070312 413.257812 76.167969 412.289062 76.355469 411.328125 C 76.546875 410.371094 76.832031 409.4375 77.203125 408.535156 C 77.578125 407.628906 78.039062 406.773438 78.582031 405.957031 C 79.125 405.144531 79.742188 404.390625 80.433594 403.699219 Z M 80.433594 403.699219 " fill-opacity="1" fill-rule="nonzero"/><g fill="#eaedff" fill-opacity="1"><g transform="translate(283.617988, 397.401781)"><g><path d="M 85.515625 0 L 80.875 -15.5 L 42.359375 -15.5 L 37.71875 0 L 1.59375 0 L 41.71875 -109.96875 L 82.796875 -109.96875 L 122.90625 0 Z M 49.703125 -40.109375 L 73.515625 -40.109375 L 62.015625 -79.28125 L 61.375 -79.28125 Z M 49.703125 -40.109375 "/></g></g></g><g fill="#eaedff" fill-opacity="1"><g transform="translate(407.95578, 397.401781)"><g><path d="M 58.015625 -111.875 C 72.078125 -111.875 83.632812 -109.023438 92.6875 -103.328125 C 101.75 -97.628906 106.390625 -89.1875 106.609375 -78 L 106.609375 -76.078125 L 73.515625 -76.078125 L 73.515625 -76.71875 C 73.515625 -79.914062 72.34375 -82.578125 70 -84.703125 C 67.65625 -86.835938 64.085938 -87.90625 59.296875 -87.90625 C 54.609375 -87.90625 51.007812 -87.210938 48.5 -85.828125 C 46 -84.441406 44.75 -82.738281 44.75 -80.71875 C 44.75 -77.832031 46.453125 -75.695312 49.859375 -74.3125 C 53.273438 -72.9375 58.765625 -71.5 66.328125 -70 C 75.171875 -68.1875 82.441406 -66.296875 88.140625 -64.328125 C 93.847656 -62.359375 98.832031 -59.132812 103.09375 -54.65625 C 107.351562 -50.1875 109.535156 -44.113281 109.640625 -36.4375 C 109.640625 -23.4375 105.242188 -13.789062 96.453125 -7.5 C 87.660156 -1.21875 75.914062 1.921875 61.21875 1.921875 C 44.0625 1.921875 30.710938 -0.953125 21.171875 -6.703125 C 11.640625 -12.460938 6.875 -22.640625 6.875 -37.234375 L 40.28125 -37.234375 C 40.28125 -31.691406 41.71875 -27.988281 44.59375 -26.125 C 47.46875 -24.257812 51.941406 -23.328125 58.015625 -23.328125 C 62.492188 -23.328125 66.195312 -23.804688 69.125 -24.765625 C 72.050781 -25.734375 73.515625 -27.707031 73.515625 -30.6875 C 73.515625 -33.351562 71.890625 -35.347656 68.640625 -36.671875 C 65.390625 -38.003906 60.09375 -39.421875 52.75 -40.921875 C 43.789062 -42.835938 36.378906 -44.832031 30.515625 -46.90625 C 24.660156 -48.988281 19.546875 -52.425781 15.171875 -57.21875 C 10.804688 -62.007812 8.625 -68.507812 8.625 -76.71875 C 8.625 -88.757812 13.285156 -97.628906 22.609375 -103.328125 C 31.929688 -109.023438 43.734375 -111.875 58.015625 -111.875 Z M 58.015625 -111.875 "/></g></g></g><g fill="#eaedff" fill-opacity="1"><g transform="translate(523.343806, 397.401781)"><g><path d="M 85.984375 0 L 85.984375 -41.71875 L 47.15625 -41.71875 L 47.15625 0 L 11.828125 0 L 11.828125 -109.96875 L 47.15625 -109.96875 L 47.15625 -69.84375 L 85.984375 -69.84375 L 85.984375 -109.96875 L 121.3125 -109.96875 L 121.3125 0 Z M 85.984375 0 "/></g></g></g><g fill="#eaedff" fill-opacity="1"><g transform="translate(656.471548, 397.401781)"><g><path d="M 85.515625 0 L 80.875 -15.5 L 42.359375 -15.5 L 37.71875 0 L 1.59375 0 L 41.71875 -109.96875 L 82.796875 -109.96875 L 122.90625 0 Z M 49.703125 -40.109375 L 73.515625 -40.109375 L 62.015625 -79.28125 L 61.375 -79.28125 Z M 49.703125 -40.109375 "/></g></g></g></svg>